<svg width="22" height="21" viewBox="0 0 22 21" fill="none" xmlns="http://www.w3.org/2000/svg">
<g id="Calque_1" clip-path="url(#clip0_1_885)">
<path id="Vector" d="M9.49211 0.213135C9.36836 0.213135 9.24836 0.216919 9.12461 0.224488C4.01714 0.508325 0.450909 5.34491 0.735908 10.3064C1.10341 16.6908 7.02837 21.1414 13.1146 20.7478C16.0696 20.5548 18.8933 19.3021 21.087 17.3077L21.2745 17.1374L21.2033 16.8952L19.9245 12.4598L19.872 12.2781L19.7033 12.2024L16.1858 10.6319C16.8121 9.57598 17.1458 8.32709 17.0858 7.05929C16.9058 3.16504 13.5271 0.375868 9.8596 0.220704C9.73585 0.216919 9.61585 0.213135 9.49211 0.213135ZM9.49586 1.02302C9.54461 1.02302 9.5971 1.02302 9.64585 1.02302L9.34961 2.95689L9.33836 3.03258L9.34586 3.05908C8.19836 3.1499 7.05087 3.55484 6.09463 4.28904L5.47963 2.24541C6.55212 1.54528 7.80087 1.10628 9.16961 1.03059C9.27836 1.02302 9.39086 1.02302 9.49961 1.01923L9.49586 1.02302ZM10.4483 1.08357C12.0871 1.30307 13.6208 2.10538 14.7046 3.30507L13.2458 4.16793L13.2308 4.1755C12.3983 3.48672 11.3071 3.10827 10.1634 3.04772L10.1521 3.00609L10.4483 1.07978V1.08357ZM4.79338 2.74875L5.40838 4.79237L5.43463 4.8832C4.80838 5.5417 4.30964 6.37808 4.02839 7.39611C3.99839 7.49829 3.97214 7.60425 3.94964 7.70644L2.21715 6.26833C2.7834 4.89077 3.66839 3.66838 4.79713 2.74875H4.79338ZM15.2108 3.94465C15.8371 4.84536 16.2308 5.91637 16.2871 7.09713C16.2871 7.11984 16.2871 7.14255 16.2871 7.16525L14.7496 7.29014C14.7458 7.19931 14.7383 7.10849 14.7271 7.02144C14.6258 6.12073 14.2958 5.36762 13.8121 4.76967L15.2071 3.94465H15.2108ZM10.2346 5.88988C10.3359 5.88988 10.4333 5.90123 10.5346 5.91637L10.4708 7.61561C10.2909 7.6421 10.1146 7.69508 9.94585 7.78591L8.07086 7.01387C8.55461 6.36294 9.27836 5.92015 10.1259 5.89366C10.1634 5.89366 10.1971 5.89366 10.2346 5.89366V5.88988ZM11.3258 6.18507C11.9408 6.52946 12.3908 7.14255 12.4058 7.88809C12.4133 8.16814 12.3458 8.45198 12.2258 8.69797C12.1621 8.51253 12.0646 8.33845 11.9333 8.1795C11.7421 7.95243 11.5021 7.78969 11.2433 7.69508H11.2696L11.3258 6.18507ZM1.9209 7.07821L3.76589 8.60715C3.59714 9.71979 3.65714 10.734 3.89339 11.6347L1.6584 11.3509C1.5984 10.9952 1.5534 10.6319 1.53465 10.261C1.4709 9.17482 1.60965 8.09624 1.92465 7.07821H1.9209ZM7.67712 7.72157L9.30836 8.39521C9.10586 8.7396 9.03836 9.14454 9.10961 9.53435L7.87212 10.6205C7.61337 10.155 7.45587 9.62517 7.43712 9.05372C7.42212 8.59201 7.50837 8.13787 7.67712 7.72157ZM16.2571 7.97892C16.1146 9.23159 15.5446 10.4123 14.6821 11.2752L13.7446 10.3291C14.3183 9.75385 14.6483 8.97046 14.7383 8.10381L16.2571 7.97892ZM9.44336 10.3102C9.76585 10.7984 10.2984 11.1276 10.8646 11.2412L10.9846 12.6414C9.9646 12.5279 9.00461 12.0321 8.34086 11.2828L9.44336 10.3102ZM13.0996 10.8211L14.0708 11.8013C13.4146 12.2743 12.6421 12.5809 11.7871 12.6528L11.6708 11.2676C12.2221 11.2109 12.6983 11.0557 13.0996 10.8211ZM1.84215 12.1911L4.18589 12.49C4.60963 13.4891 5.27338 14.3255 6.09838 14.9878L3.78839 15.9566C2.89214 14.8705 2.21715 13.5989 1.84215 12.1911ZM19.1895 12.8571L19.2083 12.8685L20.3595 16.8725C19.062 18.0078 17.5433 18.8745 15.9158 19.3967L16.2833 15.6312L16.2908 15.563C17.4121 14.9235 18.4133 14.0265 19.1858 12.8571H19.1895ZM6.87837 15.5328C8.00336 16.2178 9.33461 16.6303 10.7183 16.7514L8.83211 19.3892C7.13337 18.8215 5.58463 17.8565 4.35089 16.5886L6.87837 15.5328ZM15.4471 15.9869L15.0908 19.6276C14.4271 19.7903 13.7483 19.8963 13.0658 19.9417C11.9071 20.0174 10.7558 19.9039 9.6496 19.6238L11.6071 16.8838L11.6821 16.7817C12.9608 16.7665 14.2546 16.5092 15.4508 15.9831L15.4471 15.9869Z" fill="#F1FAFF"/>
</g>
<defs>
<clipPath id="clip0_1_885">
<rect width="20.5574" height="20.5574" fill="white" transform="translate(0.721191 0.213135)"/>
</clipPath>
</defs>
</svg>
