<svg width="34" height="34" viewBox="0 0 34 34" fill="none" xmlns="http://www.w3.org/2000/svg">
<g id="Group 7">
<path id="Vector" d="M9.14536 20.743L16.2236 28.3929C16.3832 28.5657 16.6091 28.6588 16.8285 28.6588C17.0478 28.6588 17.2671 28.5723 17.4333 28.3929L24.5049 20.743C27.1103 18.5099 28.8848 15.1469 28.6123 11.425C27.8281 0.638043 16.8218 0 16.7952 0C10.2819 0 5.02466 5.27714 5.02466 11.7905C5.02466 15.3728 6.63306 18.5763 9.14536 20.743ZM16.8351 2.37272V2.40595C16.8351 2.40595 25.4221 2.7715 26.2595 11.5047C26.532 14.3626 25.143 17.0809 22.9696 18.9419L16.8351 25.5483L10.7006 18.9419C8.61365 17.154 7.41067 14.5421 7.41067 11.7905C7.41067 6.61305 11.651 2.39266 16.8285 2.37272H16.8351Z" fill="#FFF5EA"/>
<path id="Vector_2" d="M16.835 16.8749C19.7993 16.8749 22.2119 14.4623 22.2119 11.4981C22.2119 8.53381 19.7993 6.12122 16.835 6.12122C13.8708 6.12122 11.4582 8.53381 11.4582 11.4981C11.4582 14.4623 13.8708 16.8749 16.835 16.8749ZM16.835 8.49394C18.49 8.49394 19.8392 9.84313 19.8392 11.4981C19.8392 13.153 18.49 14.5022 16.835 14.5022C15.1801 14.5022 13.8309 13.153 13.8309 11.4981C13.8309 9.84313 15.1801 8.49394 16.835 8.49394ZM26.7712 23.0294C26.1398 22.8632 25.4885 23.242 25.3223 23.8801C25.1562 24.5181 25.535 25.1628 26.1731 25.329C26.193 25.329 26.213 25.3356 26.2329 25.3423C30.0612 26.2395 31.304 27.4159 31.304 27.8479C31.304 28.8847 26.3791 31.3173 16.835 31.3173C7.29098 31.3173 2.36608 28.8847 2.36608 27.8479C2.36608 27.3694 3.78174 26.0866 8.14835 25.1827C8.79304 25.0498 9.20511 24.4251 9.07218 23.7804C8.93925 23.1357 8.3145 22.7236 7.66981 22.8565C4.16722 23.581 0 25.0365 0 27.8413C0 31.8556 8.72657 33.6833 16.8417 33.6833C24.9568 33.6833 33.6834 31.8556 33.6834 27.8413C33.6834 25.7477 31.2974 24.0795 26.7779 23.0227L26.7712 23.0294Z" fill="#FFF5EA"/>
</g>
</svg>
